<?xml version="1.0" encoding="iso-8859-1"?>
<!-- Generator: Adobe Illustrator 21.0.0, SVG Export Plug-In . SVG Version: 6.00 Build 0)  -->
<svg xmlns="http://www.w3.org/2000/svg" xmlns:xlink="http://www.w3.org/1999/xlink" version="1.1" id="Capa_1" x="0px" y="0px" viewBox="0 0 512 512" style="enable-background:new 0 0 512 512;" xml:space="preserve" width="512" height="512">
<g>
	<g>
		<g>
			<g>
				<g>
					<g>
						<g>
							<g>
								<g>
									<g>
										<circle style="fill:#3F6199;" cx="256" cy="256" r="256"/>
									</g>
								</g>
							</g>
						</g>
					</g>
				</g>
			</g>
		</g>
	</g>
	<path style="fill:#2B4160;" d="M446.997,205.828l-114.439,31.21L202.649,107.128L65.003,310.005l201.754,201.754   c131.603-5.442,237.55-110.22,244.832-241.34L446.997,205.828z"/>
	<g>
		<polygon style="fill:#FFFFFF;" points="65.003,205.828 65.003,310.005 229.887,310.005 244.015,241.04 267.985,241.04     282.113,310.005 446.997,310.005 446.997,205.828   "/>
	</g>
	<g>
		<polygon style="fill:#E9EDF5;" points="255.425,205.828 255.425,241.04 267.985,241.04 282.113,310.005 446.997,310.005     446.997,205.828   "/>
	</g>
	<g>
		<polygon style="fill:#4AB8F7;" points="203.678,286.848 91.212,286.848 91.212,228.985 214.349,228.985   "/>
	</g>
	<g>
		<polygon style="fill:#FF583E;" points="420.788,286.848 308.322,286.848 297.651,228.985 420.788,228.985   "/>
	</g>
	<g>
		<polygon style="fill:#DCE1EB;" points="446.997,205.828 309.351,107.128 292.279,129.536 352.032,205.828   "/>
	</g>
	<g>
		<polygon style="fill:#E9EDF5;" points="65.003,205.828 202.649,107.128 219.721,129.536 159.968,205.828   "/>
	</g>
</g>















</svg>
