<?xml version="1.0" encoding="iso-8859-1"?>
<!-- Generator: Adobe Illustrator 21.0.0, SVG Export Plug-In . SVG Version: 6.00 Build 0)  -->
<svg xmlns="http://www.w3.org/2000/svg" xmlns:xlink="http://www.w3.org/1999/xlink" version="1.1" id="Capa_1" x="0px" y="0px" viewBox="0 0 512 512" style="enable-background:new 0 0 512 512;" xml:space="preserve" width="512" height="512">
<g>
	<g>
		<g>
			<g>
				<g>
					<g>
						<g>
							<g>
								<g>
									<g>
										<circle style="fill:#FFC200;" cx="256" cy="256" r="256"/>
									</g>
								</g>
							</g>
						</g>
					</g>
				</g>
			</g>
		</g>
	</g>
	<path style="fill:#FF8B00;" d="M512,256c0-17.028-1.678-33.663-4.85-49.761l-80.625-80.625L85.475,364.281l146.597,146.597   c7.88,0.73,15.858,1.122,23.928,1.122C397.385,512,512,397.385,512,256z"/>
	<g>
		<rect x="213.34" y="348.281" style="fill:#3F6199;" width="85.321" height="72.049"/>
	</g>
	<g>
		<rect x="255.905" y="348.281" style="fill:#2B4160;" width="42.756" height="72.048"/>
	</g>
	<g>
		<rect x="101.475" y="141.615" style="fill:#4AB8F7;" width="309.051" height="206.666"/>
		<rect x="101.475" y="141.615" style="fill:#4AB8F7;" width="154.43" height="206.666"/>
		<rect x="255.905" y="141.615" style="fill:#368DCF;" width="154.621" height="206.666"/>
		<path style="fill:#2B4160;" d="M426.525,364.281H85.475V125.615h341.051V364.281z M117.475,332.281h277.051V157.615H117.475    V332.281z"/>
		<path style="fill:#2B4160;" d="M426.525,364.281H85.475V125.615h341.051V364.281z M117.475,332.281h277.051V157.615H117.475    V332.281z"/>
		<polygon style="fill:#1E3249;" points="426.525,125.615 255.905,125.615 255.905,157.615 394.525,157.615 394.525,332.281     255.905,332.281 255.905,364.281 426.525,364.281   "/>
	</g>
	<g>
		<rect x="184.292" y="394.634" style="fill:#2B4160;" width="143.417" height="51.39"/>
	</g>
	<g>
		<rect x="255.905" y="394.634" style="fill:#1E3249;" width="71.803" height="51.39"/>
	</g>
	<g>
		<rect x="132.667" y="299" style="fill:#414952;" width="246.667" height="18"/>
	</g>
	<g>
		<rect x="255.905" y="299" style="fill:#333940;" width="123.428" height="18"/>
	</g>
	<g>
		<rect x="341" y="291" style="fill:#333940;" width="22" height="31.333"/>
	</g>
	<g>
		<rect x="132.667" y="177.167" style="fill:#333940;" width="41.667" height="96.5"/>
	</g>
	<g>
		<rect x="337.667" y="177.167" style="fill:#23272B;" width="41.667" height="96.5"/>
	</g>
	<g>
		<rect x="195.753" y="177.167" style="fill:#333940;" width="120.494" height="96.5"/>
	</g>
	<g>
		<rect x="255.905" y="177.167" style="fill:#23272B;" width="60.342" height="96.5"/>
	</g>
</g>















</svg>
